<?xml version="1.0" standalone="no"?>
<!DOCTYPE svg PUBLIC "-//W3C//DTD SVG 20010904//EN"
 "http://www.w3.org/TR/2001/REC-SVG-20010904/DTD/svg10.dtd">
<svg version="1.0" xmlns="http://www.w3.org/2000/svg"
 width="500.000000pt" height="500.000000pt" viewBox="0 0 500.000000 500.000000"
 preserveAspectRatio="xMidYMid meet">
<metadata>
Created by potrace 1.14, written by Peter Selinger 2001-2017
</metadata>
<g transform="translate(0.000000,500.000000) scale(0.100000,-0.100000)"
fill="#000000" stroke="none">
<path d="M1025 3517 c-14 -127 20 -263 85 -346 54 -68 222 -174 576 -363 74
-39 133 -73 131 -74 -2 -2 -159 68 -350 155 l-346 158 26 -51 c38 -75 97 -158
136 -193 42 -37 138 -70 337 -117 80 -19 138 -35 130 -35 -8 -1 -116 17 -240
38 -124 22 -227 37 -229 35 -9 -9 21 -85 45 -113 13 -16 41 -35 61 -42 20 -6
128 -14 247 -18 l211 -6 -210 -19 c-115 -10 -216 -22 -224 -26 -17 -9 36 -51
104 -81 63 -28 125 -23 270 25 60 19 110 34 111 33 1 -1 -69 -40 -157 -87 -87
-47 -159 -88 -159 -91 0 -10 40 -19 85 -19 63 0 133 39 226 125 21 20 39 33
39 29 0 -4 -32 -56 -71 -116 -39 -61 -69 -112 -67 -114 2 -1 27 10 56 27 52
30 112 103 112 138 0 9 11 -10 24 -41 36 -87 107 -167 186 -208 19 -10 16 -4
-16 33 -97 110 -144 251 -144 432 0 160 12 145 -271 324 -276 175 -541 425
-690 651 -17 25 -17 24 -24 -43z"/>
<path d="M3914 3508 c-157 -225 -425 -462 -739 -653 -181 -110 -187 -120 -186
-274 2 -174 -41 -304 -142 -425 l-40 -48 33 17 c76 39 190 185 190 244 0 8 12
-9 26 -37 14 -29 40 -63 58 -77 36 -27 88 -56 94 -51 2 2 -27 50 -63 107 -66
101 -94 153 -64 118 28 -32 134 -112 174 -130 52 -24 166 -24 165 0 0 3 -72
44 -159 91 -88 47 -158 86 -157 87 1 1 51 -14 111 -34 173 -58 251 -52 354 25
25 18 30 27 20 32 -8 4 -108 16 -224 26 l-210 19 211 6 c119 4 227 12 247 18
20 7 48 26 61 42 24 28 54 104 45 113 -2 2 -105 -13 -229 -35 -124 -21 -232
-39 -240 -38 -8 0 50 16 130 35 199 47 295 80 337 117 39 35 98 118 136 193
l26 51 -346 -158 c-191 -87 -348 -157 -350 -156 -1 2 79 48 180 102 430 232
534 307 577 422 32 83 45 186 34 262 l-9 63 -51 -74z"/>
<path d="M2482 3145 c-8 -18 -19 -25 -39 -25 l-26 0 20 -22 c15 -16 20 -31 16
-51 -5 -27 -5 -27 21 -16 20 10 32 10 52 0 26 -11 26 -11 21 16 -4 20 1 35 16
51 l20 22 -26 0 c-20 0 -31 7 -39 25 -6 14 -14 25 -18 25 -4 0 -12 -11 -18
-25z"/>
<path d="M2276 3055 c-3 -8 -13 -15 -23 -15 -13 0 -14 -3 -5 -12 7 -7 12 -19
12 -29 0 -12 8 -16 30 -15 20 1 30 6 30 17 0 8 5 20 12 27 9 9 8 12 -5 12 -10
0 -20 7 -23 15 -4 8 -10 15 -14 15 -4 0 -10 -7 -14 -15z"/>
<path d="M2696 3055 c-3 -8 -13 -15 -23 -15 -13 0 -14 -3 -5 -12 7 -7 12 -19
12 -27 0 -11 10 -16 30 -17 22 -1 30 3 30 15 0 10 5 22 12 29 9 9 8 12 -5 12
-10 0 -20 7 -23 15 -4 8 -10 15 -14 15 -4 0 -10 -7 -14 -15z"/>
<path d="M2450 2943 c0 -5 -21 -9 -47 -9 -30 -1 -51 -7 -58 -18 -7 -8 -14 -13
-18 -10 -7 8 -87 -34 -87 -46 0 -6 -6 -10 -13 -10 -16 0 -67 -52 -67 -68 0 -7
-4 -12 -9 -12 -14 0 -53 -71 -47 -86 3 -7 0 -14 -6 -16 -18 -6 -38 -84 -25
-97 8 -8 8 -11 -1 -11 -8 0 -12 -18 -12 -50 0 -27 3 -50 8 -50 4 0 8 -21 8
-47 1 -30 7 -51 18 -58 8 -7 13 -14 10 -18 -30 -29 189 -245 226 -222 6 3 10
2 10 -4 0 -13 67 -34 91 -28 10 3 19 1 19 -4 0 -5 23 -9 50 -9 28 0 50 4 50 9
0 5 9 7 19 4 24 -6 91 15 91 28 0 6 4 7 10 4 37 -23 256 193 226 222 -3 4 2
11 10 18 11 7 17 28 18 58 0 26 4 47 9 47 4 0 7 23 7 50 0 28 -3 50 -7 50 -5
0 -9 21 -9 47 -1 28 -8 51 -16 57 -8 6 -13 16 -11 22 5 14 -35 84 -48 84 -5 0
-9 6 -9 13 0 16 -52 67 -68 67 -7 0 -12 4 -12 10 0 12 -80 54 -87 46 -4 -3
-11 2 -18 10 -7 11 -28 17 -58 18 -26 0 -47 4 -47 9 0 4 -22 7 -50 7 -27 0
-50 -3 -50 -7z m185 -160 c51 -27 111 -87 138 -138 29 -57 35 -167 12 -236
-24 -72 -110 -159 -179 -182 -117 -40 -231 -14 -317 72 -71 72 -94 132 -87
235 8 114 68 203 172 253 44 21 62 24 136 20 61 -2 96 -9 125 -24z"/>
<path d="M2412 2785 c-81 -25 -151 -91 -182 -173 -52 -137 13 -298 147 -363
67 -32 179 -32 246 0 64 31 133 110 152 174 34 113 10 206 -75 289 -84 82
-181 107 -288 73z m63 -84 c-5 -49 -12 -71 -22 -75 -15 -6 -123 68 -123 84 0
20 132 77 149 64 2 -2 0 -34 -4 -73z m153 40 c23 -12 42 -25 42 -30 0 -16
-107 -91 -122 -86 -15 6 -28 65 -28 125 0 26 2 27 33 21 17 -5 51 -18 75 -30z
m-278 -115 c24 -31 38 -60 35 -68 -6 -15 -65 -28 -121 -28 -19 0 -24 5 -24 25
0 38 42 125 61 125 5 0 27 -24 49 -54z m385 2 c14 -29 25 -64 25 -77 0 -23 -1
-24 -67 -17 -73 8 -83 11 -83 30 0 17 78 116 91 116 6 0 21 -24 34 -52z m-200
-92 c30 -45 -16 -91 -61 -61 -28 18 -31 41 -7 67 22 25 49 23 68 -6z m-192
-53 c21 -3 41 -12 44 -19 5 -13 -73 -124 -87 -124 -12 0 -60 101 -60 127 0 19
5 23 33 23 17 0 49 -3 70 -7z m417 -16 c0 -26 -47 -127 -60 -127 -15 0 -92
110 -87 124 6 15 35 22 105 25 38 1 42 -1 42 -22z m-297 -74 c3 -5 8 -39 12
-77 l8 -69 -37 6 c-21 3 -58 18 -82 32 l-45 26 57 45 c56 43 78 52 87 37z
m156 -34 c28 -22 51 -44 51 -49 0 -13 -101 -60 -128 -60 -24 0 -25 1 -18 67 4
36 9 70 12 75 10 16 32 7 83 -33z"/>
<path d="M1872 1868 c-25 -25 -13 -57 31 -88 76 -55 80 -60 67 -76 -17 -20 4
-18 24 2 9 8 16 22 16 31 0 16 -48 65 -94 96 -16 11 -25 25 -22 33 7 17 -6 18
-22 2z"/>
<path d="M1940 1868 c6 -7 16 -21 23 -30 9 -13 16 -15 27 -8 13 9 12 13 -9 30
-26 23 -59 28 -41 8z"/>
<path d="M2063 1856 c-23 -20 -28 -32 -28 -71 0 -39 5 -51 28 -71 44 -37 135
-31 151 11 4 11 -3 9 -25 -7 -28 -21 -32 -21 -56 -8 -15 8 -30 29 -35 45 -9
33 -2 93 14 113 19 23 -19 13 -49 -12z"/>
<path d="M2159 1863 c5 -10 12 -26 15 -35 3 -11 12 -15 25 -11 26 7 26 18 1
43 -26 26 -54 27 -41 3z"/>
<path d="M2291 1854 c-43 -36 -44 -93 -2 -135 16 -16 40 -29 52 -29 22 0 22 0
3 14 -28 21 -28 141 0 162 19 14 19 14 -1 14 -12 0 -35 -12 -52 -26z"/>
<path d="M2410 1860 c15 -15 20 -33 20 -75 0 -42 -5 -60 -20 -75 -19 -19 -19
-20 -1 -20 11 0 33 12 50 26 26 21 31 33 31 67 -1 56 -36 97 -84 97 -13 0 -12
-4 4 -20z"/>
<path d="M2567 1864 c-34 -18 -45 -56 -34 -114 6 -29 48 -60 82 -60 12 0 11 4
-5 20 -25 25 -28 114 -4 148 18 27 4 29 -39 6z"/>
<path d="M2674 1867 c33 -24 34 -128 0 -161 -14 -15 -13 -16 6 -16 36 0 80 53
80 95 0 43 -44 95 -81 95 -21 0 -21 -1 -5 -13z"/>
<path d="M2790 1870 c0 -5 13 -7 30 -3 l30 6 0 -92 0 -91 30 0 30 0 0 91 0 92
30 -6 c17 -4 30 -2 30 3 0 6 -38 10 -90 10 -52 0 -90 -4 -90 -10z"/>
<path d="M3010 1859 c-15 -27 5 -58 66 -100 34 -23 44 -36 41 -50 -6 -23 6
-25 22 -5 27 32 9 69 -52 109 -38 25 -57 43 -53 53 8 22 -12 16 -24 -7z"/>
<path d="M3098 1851 c15 -27 42 -32 42 -9 0 13 -31 37 -47 38 -8 0 -7 -9 5
-29z"/>
<path d="M1860 1750 c-13 -9 -11 -14 13 -35 43 -38 61 -33 34 10 -25 38 -26
39 -47 25z"/>
<path d="M3007 1753 c-12 -11 -8 -21 15 -43 12 -11 31 -20 42 -19 12 0 15 3 8
6 -7 3 -19 18 -27 34 -15 29 -26 35 -38 22z"/>
<path d="M2041 1518 c1 -35 4 -51 6 -35 5 34 30 35 45 2 6 -14 15 -25 20 -25
5 0 4 10 -3 21 -8 16 -8 28 0 45 13 29 -8 54 -45 54 -23 0 -24 -3 -23 -62z
m57 25 c-2 -10 -13 -19 -26 -21 -17 -3 -22 2 -22 17 0 16 6 21 26 21 19 0 25
-5 22 -17z"/>
<path d="M2180 1520 l0 -60 38 1 c36 1 36 2 7 8 -39 8 -48 41 -11 41 14 0 26
5 26 10 0 6 -11 10 -25 10 -16 0 -25 6 -25 15 0 10 10 15 30 15 17 0 30 5 30
10 0 6 -16 10 -35 10 l-35 0 0 -60z"/>
<path d="M2317 1573 c-11 -10 -8 -113 2 -113 6 0 11 19 13 43 l3 42 25 -42
c14 -24 28 -43 33 -43 4 0 6 28 5 63 -1 62 -1 62 -7 14 l-6 -47 -28 45 c-31
49 -31 48 -40 38z"/>
<path d="M2470 1570 c0 -5 7 -10 15 -10 11 0 15 -12 15 -50 0 -27 5 -50 10
-50 6 0 10 23 10 50 0 38 4 50 15 50 8 0 15 5 15 10 0 6 -18 10 -40 10 -22 0
-40 -4 -40 -10z"/>
<path d="M2648 1575 c-16 -25 -45 -115 -38 -115 4 0 10 7 14 15 7 20 46 19 62
-2 11 -15 13 -15 13 -3 0 25 -45 115 -51 105z m22 -62 c0 -7 -7 -13 -15 -13
-16 0 -19 9 -9 35 5 13 8 14 15 3 5 -7 9 -19 9 -25z"/>
<path d="M2768 1574 c-5 -4 -8 -31 -8 -61 l0 -53 38 1 c29 2 31 3 10 6 -25 4
-27 8 -30 60 -2 30 -6 51 -10 47z"/>
<path d="M2900 1565 c-17 -20 -6 -43 25 -51 16 -4 25 -13 25 -25 0 -22 -29
-26 -49 -6 -11 10 -13 9 -9 -3 3 -10 17 -15 39 -15 28 0 35 4 37 23 3 18 -3
25 -27 33 -29 10 -39 28 -24 42 3 4 17 0 30 -8 24 -16 32 -8 11 13 -16 16 -43
15 -58 -3z"/>
</g>
</svg>
