<svg xmlns="http://www.w3.org/2000/svg" viewBox="0 0 1048.69 341.62"><defs><style>.cls-1{fill:#fff;}</style></defs><title>Asset 1</title><g id="Layer_2" data-name="Layer 2"><g id="Layer_1-2" data-name="Layer 1"><path class="cls-1" d="M87.4,129.1h22.22l1-25H10.23a8.09,8.09,0,0,0-4.59,1.73C3.47,107.52,0,139.43,0,142.37s7.66,19.16,20.68,28.86,27.39,13.09,30.38,14S80,187.6,80,187.6L82,209.65l24,1.28.77-46.09H82.3l-.39,5.23L57,169.18s-15-1.54-24.38-10-10.47-14.29-10.47-14.29l1.15-18,7.79-5.75,53.23-.85Z"></path><path class="cls-1" d="M114,137.87S553.1,43.66,1023.4,0L996.86,61.79C673.21,83.06,114,137.87,114,137.87Z"></path><path class="cls-1" d="M114,137.87s311.79-33.8,529.84-28.38c198.46,4.94,306.59,9.23,306.59,9.23l-19.15,46.73S726,157.5,546.79,145.29C371.18,133.32,114,137.87,114,137.87Z"></path><polygon class="cls-1" points="1012.69 36 1018.82 22.98 1047.16 20.94 1032.87 55.66 1048.69 55.66 1008.61 148.6 972.1 148.6 955.76 186.89 806.65 169.02 934.31 173.36 953.21 128.43 983.84 129.19 1023.4 35.74 1012.69 36"></polygon><path class="cls-1" d="M161,182.29h49.64q20.55,0,30.12,2.94,17.82,5.6,27.76,25.1,6.92,13.74,6.91,35.43,0,43.29-23.49,58.16A44.14,44.14,0,0,1,236.83,310q-8,1.56-24.25,1.57H161Zm20.66,16.49v96.33h33q22,0,30.79-12.79,8-11.64,8.05-33.81,0-25.11-9.29-38.08a24.55,24.55,0,0,0-11.6-9q-7.16-2.7-19.37-2.7Z"></path><path class="cls-1" d="M295.46,217.15h24.25q11.66,0,18.09,1.61a25.32,25.32,0,0,1,10.9,5.59,20.78,20.78,0,0,1,6,9.66q1.69,5.79,1.7,16.58v9.19H338.66v-9.19q0-10.32-3.56-14t-13.4-3.69h-7.48V311.6H295.46Z"></path><path class="cls-1" d="M371.72,201.9V182.29h18.75V201.9Zm0,15.25h18.75V311.6H371.72Z"></path><path class="cls-1" d="M417.37,217.15h38.94q14.78,0,22,2.33a31.83,31.83,0,0,1,13.46,9q11.17,12.31,11.17,35.81a64.79,64.79,0,0,1-3.83,22.4q-3.84,10.47-10.47,16.53a27.8,27.8,0,0,1-12.32,6.68q-6.81,1.65-22.07,1.66H436.13v30H417.37ZM436.13,232v64.69h18.09q16,0,22-6.25,7.29-7.58,7.29-27.37,0-16.68-6.77-23.87t-22.5-7.2Z"></path><path class="cls-1" d="M554,198.78H509.32V182.29H619.48v16.49h-44.8V311.6H554Z"></path><path class="cls-1" d="M686.55,255.71v14.87H629.9q-.2,12.78,6.54,19.8a17.76,17.76,0,0,0,8.43,5q5,1.38,14.49,1.37h27.19V311.6h-32.3q-12.13,0-18.85-1.85a29,29,0,0,1-12-6.68Q609.92,291,609.91,266.22q0-30.12,20.47-42.53,10.7-6.54,29-6.54h27.19V232H662.11q-9.86,0-15.25,1.51a21.3,21.3,0,0,0-9.29,5.31q-5.87,5.78-7.67,16.86Z"></path><path class="cls-1" d="M780,217.15V232h-30q-9,0-14.3,2.08a18.61,18.61,0,0,0-8.62,6.82q-5.5,8.06-5.5,23.59,0,18.57,7.86,26.43,5.79,5.78,20.56,5.77h30V311.6h-30q-14.77,0-23-2.56-13.54-4.17-20.27-19.8a58.53,58.53,0,0,1-4.55-23.11q0-22.93,12.41-36.47A36,36,0,0,1,728.84,220q8-2.84,21.08-2.84Z"></path><path class="cls-1" d="M815.38,182.29v34.86h21.88q13,0,20.6,1.95a30.06,30.06,0,0,1,12.84,6.58,25,25,0,0,1,7.34,12q2.13,7.35,2.13,20.6V311.6H861.41V256.75q0-14.69-4.92-19.7t-19.23-5H815.38V311.6H796.62V182.29Z"></path></g></g></svg>